HIERARCHY
ROOT Hips
{
  OFFSET 5.84602e-005 68.8428 3.50346
  CHANNELS 6 Xposition Yposition Zposition Zrotation Xrotation Yrotation
  JOINT Spine
  {
    OFFSET 0 8.597 -4.6522
    CHANNELS 3 Zrotation Xrotation Yrotation
    JOINT Spine1
    {
      OFFSET 0 7.8454 0.4098
      CHANNELS 3 Zrotation Xrotation Yrotation
      JOINT Spine2
      {
        OFFSET 0 9.7078 -2.1609
        CHANNELS 3 Zrotation Xrotation Yrotation
        JOINT Neck
        {
          OFFSET 0 21.8761 -0.4549
          CHANNELS 3 Zrotation Xrotation Yrotation
          JOINT Head
          {
            OFFSET 0 12.3537 3.3602
            CHANNELS 3 Zrotation Xrotation Yrotation
            End Site
            {
              OFFSET 0.0001 18.9506 0.5657
            }
          }
        }
        JOINT LeftShoulder
        {
          OFFSET 2.2086 21.1115 7.2329
          CHANNELS 3 Zrotation Xrotation Yrotation
          JOINT LeftArm
          {
            OFFSET 13.1193 3.0282 -4.8998
            CHANNELS 3 Zrotation Xrotation Yrotation
            JOINT LeftForeArm
            {
              OFFSET 27.4081 -0.0973053 -0.2375
              CHANNELS 3 Zrotation Xrotation Yrotation
              JOINT LeftHand
              {
                OFFSET 22.8641 0.0662994 -0.1369
                CHANNELS 3 Zrotation Xrotation Yrotation
                JOINT LeftHandIndex1
                {
                  OFFSET 8.8614 0.775009 2.4612
                  CHANNELS 3 Zrotation Xrotation Yrotation
                  JOINT LeftHandIndex2
                  {
                    OFFSET 3.3146 -0.808304 0.5841
                    CHANNELS 3 Zrotation Xrotation Yrotation
                    JOINT LeftHandIndex3
                    {
                      OFFSET 2.2628 -0.552002 0.3989
                      CHANNELS 3 Zrotation Xrotation Yrotation
                      End Site
                      {
                        OFFSET 1.6102 -0.4807 0.2612
                      }
                    }
                  }
                }
                JOINT LeftHandMiddle1
                {
                  OFFSET 8.9937 0.895004 0.2143
                  CHANNELS 3 Zrotation Xrotation Yrotation
                  JOINT LeftHandMiddle2
                  {
                    OFFSET 4.0984 0.0113983 -0.0242
                    CHANNELS 3 Zrotation Xrotation Yrotation
                    JOINT LeftHandMiddle3
                    {
                      OFFSET 2.2716 0.00689697 -0.0138001
                      CHANNELS 3 Zrotation Xrotation Yrotation
                      End Site
                      {
                        OFFSET 2.0404 -0.1441 0.0027
                      }
                    }
                  }
                }
                JOINT LeftHandRing1
                {
                  OFFSET 8.5234 0.597198 -2.0164
                  CHANNELS 3 Zrotation Xrotation Yrotation
                  JOINT LeftHandRing2
                  {
                    OFFSET 3.7188 -0.188293 -0.2328
                    CHANNELS 3 Zrotation Xrotation Yrotation
                    JOINT LeftHandRing3
                    {
                      OFFSET 2.1191 -0.106598 -0.1332
                      CHANNELS 3 Zrotation Xrotation Yrotation
                      End Site
                      {
                        OFFSET 1.8737 -0.2304 -0.0886
                      }
                    }
                  }
                }
                JOINT LeftHandPinky1
                {
                  OFFSET 7.9094 -0.601089 -3.4825
                  CHANNELS 3 Zrotation Xrotation Yrotation
                  JOINT LeftHandPinky2
                  {
                    OFFSET 2.2874 -0.477005 -0.6314
                    CHANNELS 3 Zrotation Xrotation Yrotation
                    JOINT LeftHandPinky3
                    {
                      OFFSET 1.6774 -0.349396 -0.4633
                      CHANNELS 3 Zrotation Xrotation Yrotation
                      End Site
                      {
                        OFFSET 1.4888 -0.4091 -0.3416
                      }
                    }
                  }
                }
                JOINT LeftHandThumb1
                {
                  OFFSET 1.833 -1.3875 1.3896
                  CHANNELS 3 Zrotation Xrotation Yrotation
                  JOINT LeftHandThumb2
                  {
                    OFFSET 3.4129 -1.121 2.5732
                    CHANNELS 3 Zrotation Xrotation Yrotation
                    JOINT LeftHandThumb3
                    {
                      OFFSET 2.2474 -0.804199 1.6192
                      CHANNELS 3 Zrotation Xrotation Yrotation
                      End Site
                      {
                        OFFSET 1.6527 -0.5689 1.1317
                      }
                    }
                  }
                }
              }
            }
          }
        }
        JOINT RightShoulder
        {
          OFFSET -2.2086 21.1115 7.2329
          CHANNELS 3 Zrotation Xrotation Yrotation
          JOINT RightArm
          {
            OFFSET -13.1216 3.0287 -4.9007
            CHANNELS 3 Zrotation Xrotation Yrotation
            JOINT RightForeArm
            {
              OFFSET -27.4081 -0.0973053 -0.2375
              CHANNELS 3 Zrotation Xrotation Yrotation
              JOINT RightHand
              {
                OFFSET -22.8641 0.0664063 -0.1369
                CHANNELS 3 Zrotation Xrotation Yrotation
                JOINT RightHandIndex1
                {
                  OFFSET -8.8614 0.774994 2.4612
                  CHANNELS 3 Zrotation Xrotation Yrotation
                  JOINT RightHandIndex2
                  {
                    OFFSET -3.3146 -0.808304 0.5841
                    CHANNELS 3 Zrotation Xrotation Yrotation
                    JOINT RightHandIndex3
                    {
                      OFFSET -2.2628 -0.552002 0.3989
                      CHANNELS 3 Zrotation Xrotation Yrotation
                      End Site
                      {
                        OFFSET -1.6102 -0.4807 0.2612
                      }
                    }
                  }
                }
                JOINT RightHandMiddle1
                {
                  OFFSET -8.9937 0.894989 0.2143
                  CHANNELS 3 Zrotation Xrotation Yrotation
                  JOINT RightHandMiddle2
                  {
                    OFFSET -4.0984 0.0113983 -0.0242
                    CHANNELS 3 Zrotation Xrotation Yrotation
                    JOINT RightHandMiddle3
                    {
                      OFFSET -2.2716 0.00691223 -0.0138001
                      CHANNELS 3 Zrotation Xrotation Yrotation
                      End Site
                      {
                        OFFSET -2.0404 -0.1441 0.0027
                      }
                    }
                  }
                }
                JOINT RightHandRing1
                {
                  OFFSET -8.5234 0.597198 -2.0164
                  CHANNELS 3 Zrotation Xrotation Yrotation
                  JOINT RightHandRing2
                  {
                    OFFSET -3.7188 -0.188309 -0.2328
                    CHANNELS 3 Zrotation Xrotation Yrotation
                    JOINT RightHandRing3
                    {
                      OFFSET -2.1191 -0.106598 -0.1332
                      CHANNELS 3 Zrotation Xrotation Yrotation
                      End Site
                      {
                        OFFSET -1.8737 -0.2304 -0.0886
                      }
                    }
                  }
                }
                JOINT RightHandPinky1
                {
                  OFFSET -7.9094 -0.601105 -3.4825
                  CHANNELS 3 Zrotation Xrotation Yrotation
                  JOINT RightHandPinky2
                  {
                    OFFSET -2.2874 -0.477005 -0.6314
                    CHANNELS 3 Zrotation Xrotation Yrotation
                    JOINT RightHandPinky3
                    {
                      OFFSET -1.6774 -0.349396 -0.4633
                      CHANNELS 3 Zrotation Xrotation Yrotation
                      End Site
                      {
                        OFFSET -1.4888 -0.4091 -0.3416
                      }
                    }
                  }
                }
                JOINT RightHandThumb1
                {
                  OFFSET -1.833 -1.38751 1.3896
                  CHANNELS 3 Zrotation Xrotation Yrotation
                  JOINT RightHandThumb2
                  {
                    OFFSET -3.41299 -1.12099 2.5732
                    CHANNELS 3 Zrotation Xrotation Yrotation
                    JOINT RightHandThumb3
                    {
                      OFFSET -2.24741 -0.804108 1.6192
                      CHANNELS 3 Zrotation Xrotation Yrotation
                      End Site
                      {
                        OFFSET -1.6527 -0.5689 1.1317
                      }
                    }
                  }
                }
              }
            }
          }
        }
      }
    }
  }
  JOINT RightUpLeg
  {
    OFFSET -9.1966 3.8861 -0.7581
    CHANNELS 3 Zrotation Xrotation Yrotation
    JOINT RightLeg
    {
      OFFSET -0.7359 -41.0265 0
      CHANNELS 3 Zrotation Xrotation Yrotation
      JOINT RightFoot
      {
        OFFSET 0 -40.2855 0
        CHANNELS 3 Zrotation Xrotation Yrotation
        JOINT RightToeBase
        {
          OFFSET 0 -5.6122 11.7359
          CHANNELS 3 Zrotation Xrotation Yrotation
          End Site
          {
            OFFSET 0 0 7.8731
          }
        }
      }
    }
  }
  JOINT LeftUpLeg
  {
    OFFSET 9.1965 3.8864 -0.7581
    CHANNELS 3 Zrotation Xrotation Yrotation
    JOINT LeftLeg
    {
      OFFSET 0.7359 -41.0268 0
      CHANNELS 3 Zrotation Xrotation Yrotation
      JOINT LeftFoot
      {
        OFFSET 0 -40.2855 0
        CHANNELS 3 Zrotation Xrotation Yrotation
        JOINT LeftToeBase
        {
          OFFSET 0 -5.6122 11.7359
          CHANNELS 3 Zrotation Xrotation Yrotation
          End Site
          {
            OFFSET 0 0 7.8731
          }
        }
      }
    }
  }
}
MOTION
Frames:	4
Frame Time:	0.0333333
-60.2627 4.40294 -0.46342 -90 1.98785e-016 3.50023 0.0552958 -1.85893 -0.250219 0.102505 -3.71808 -0.499042 0.102526 -3.71808 -0.499041 5.3742e-005 18.3859 -3.39878e-005 -2.49156e-006 -46.4296 -1.28228e-006 -17.054 1.39308 27.7657 0.0491662 0.000882153 -80.1147 -21.2619 -1.33232 -69.6241 -16.6458 -49.1957 -8.08129 -1.09794e-006 -1.07646e-006 1.79829e-007 1.09794e-006 1.07646e-006 -1.79829e-007 -1.09794e-006 -1.07646e-006 1.79829e-007 -1.09794e-006 -1.07646e-006 1.79829e-007 -0.0146104 -8.65023e-005 2.17534e-006 3.18055e-015 7.95139e-016 -1.59028e-015 -1.09794e-006 -1.07646e-006 1.79829e-007 -0.0187506 -0.00118199 6.04762e-005 1.27222e-014 0 1.59028e-015 -1.09794e-006 -1.07646e-006 1.79829e-007 -0.0122447 -0.0032378 0.000669138 9.54166e-015 -5.56597e-015 -0 -1.09794e-006 -1.07646e-006 1.79829e-007 1.09794e-006 1.07646e-006 -1.79829e-007 -1.09794e-006 -1.07646e-006 1.79829e-007 15.9847 -1.64478 -32.0961 -0.22987 -0.138315 78.102 19.9738 -4.11672 61.9152 37.1569 -44.4849 25.7332 -3.18055e-015 3.18055e-015 7.95139e-016 -1.27222e-014 2.38542e-015 7.95139e-016 -1.27222e-014 1.59028e-015 1.59028e-015 -3.18055e-015 3.18055e-015 7.95139e-016 0.0149534 -9.40257e-005 5.43292e-007 3.18055e-015 -1.59028e-015 2.38542e-015 -3.18055e-015 3.18055e-015 7.95139e-016 0.0190297 -0.00119118 -5.49712e-005 -6.36111e-015 7.95139e-016 7.95139e-016 -3.18055e-015 3.18055e-015 7.95139e-016 0.0122935 -0.00325225 -0.000672768 6.36111e-015 -1.19271e-014 2.38542e-015 -3.18055e-015 3.18055e-015 7.95139e-016 -1.27222e-014 2.38542e-015 7.95139e-016 -1.27222e-014 1.59028e-015 1.59028e-015 -99.8124 -19.8707 -71.2451 85.6717 9.20899 -75.6859 -10.5717 41.5901 31.209 1.21122e-007 1.52892e-006 7.16888e-007 -49.9202 -88.0284 -59.205 -34.2169 80.317 47.9415 20.5641 20.81 -25.9956 -3.97569e-015 0 -0 
-59.9933 4.59821 -0.940524 -90 1.98785e-016 3.50023 0.0545107 -1.70997 -0.250659 0.101624 -3.42016 -0.500025 0.101617 -3.42016 -0.500026 -6.17751e-005 20.1582 8.79682e-005 -2.5675e-006 -48.2493 1.12776e-006 -16.9938 1.17509 26.7126 0.0621828 0.0442783 -79.7724 -21.0224 -1.94588 -67.9647 -18.0694 -48.6641 -9.95458 -9.54166e-015 -1.59028e-015 -4.77083e-015 -9.54166e-015 -2.38542e-015 -4.77083e-015 -6.36111e-015 0 -4.77083e-015 -9.54166e-015 -1.59028e-015 -4.77083e-015 -0.0145969 -9.18111e-005 4.45514e-007 9.54166e-015 -7.95139e-016 -0 -9.54166e-015 -1.59028e-015 -4.77083e-015 -0.0187985 -0.00117487 4.92951e-005 -1.09652e-006 -1.07111e-006 1.83228e-007 -9.54166e-015 -1.59028e-015 -4.77083e-015 -0.0122504 -0.00324038 0.000670731 0 3.97569e-015 -0 -9.54166e-015 -1.59028e-015 -4.77083e-015 -9.54166e-015 -2.38542e-015 -4.77083e-015 -6.36111e-015 0 -4.77083e-015 16.0025 -1.7173 -30.8239 -0.233218 -0.0873453 77.8636 19.7324 -4.55235 60.6281 37.2165 -43.9789 26.3909 6.92396e-007 -1.05484e-006 -2.39126e-007 -3.18055e-015 -1.27222e-014 7.95139e-016 -0 -8.74653e-015 -0 6.92396e-007 -1.05484e-006 -2.39126e-007 0.0150078 -9.11255e-005 -4.475e-008 9.54166e-015 -7.95139e-016 1.59028e-015 6.92396e-007 -1.05484e-006 -2.39126e-007 0.0190164 -0.00118928 -5.6523e-005 9.54166e-015 -2.38542e-015 1.59028e-015 6.92396e-007 -1.05484e-006 -2.39126e-007 0.0123447 -0.00326703 -0.000681555 -9.54166e-015 -1.59028e-015 -0 6.92396e-007 -1.05484e-006 -2.39126e-007 -3.18055e-015 -1.27222e-014 7.95139e-016 -0 -8.74653e-015 -0 -99.4619 -20.5631 -71.1366 85.7211 9.21028 -75.7946 -10.6592 41.5655 31.339 -1.49089e-016 -6.36111e-015 1.98785e-015 -37.4047 -87.6854 -46.8657 -32.3307 78.9308 46.1814 20.7933 21.4988 -26.4102 1.33474e-007 -6.70026e-007 -5.06322e-007 
-59.7526 4.77264 -1.3667 -90 1.98785e-016 3.50023 0.0538304 -1.57677 -0.251032 0.100817 -3.15378 -0.50087 0.100788 -3.15378 -0.500872 1.33239e-006 21.7473 -6.61734e-006 -1.0162e-005 -49.8818 -1.0139e-005 -16.9429 0.979231 25.7707 0.0735854 0.0828664 -79.4666 -20.7942 -2.48141 -66.4717 -19.3089 -48.1625 -11.5974 0 3.18055e-015 -0 1.27222e-014 1.59028e-015 -7.95139e-016 -2.10378e-006 -2.39141e-006 -1.04403e-006 0 3.18055e-015 -0 -0.0146117 -9.28404e-005 3.54362e-007 -2.1037e-006 -2.39128e-006 -1.04433e-006 0 3.18055e-015 -0 -0.0187587 -0.00117833 7.08034e-005 -2.10369e-006 -2.39123e-006 -1.0444e-006 0 3.18055e-015 -0 -0.0122894 -0.00325287 0.000673434 -2.10376e-006 -2.39127e-006 -1.04423e-006 0 3.18055e-015 -0 1.27222e-014 1.59028e-015 -7.95139e-016 -2.10378e-006 -2.39141e-006 -1.04403e-006 16.0197 -1.78206 -29.6852 -0.23604 -0.0419571 77.6508 19.5084 -4.93548 59.4728 37.263 -43.5263 26.9737 -6.92705e-007 1.05322e-006 2.40249e-007 -3.18055e-015 7.95139e-016 -3.18055e-015 6.92705e-007 -1.05322e-006 -2.40249e-007 -6.92705e-007 1.05322e-006 2.40249e-007 0.0149863 -9.38802e-005 6.7771e-006 1.10348e-032 7.95139e-016 -7.95139e-016 -6.92705e-007 1.05322e-006 2.40249e-007 0.0190171 -0.00119305 -5.37491e-005 -3.18055e-015 2.38542e-015 3.18055e-015 -6.92705e-007 1.05322e-006 2.40249e-007 0.0123342 -0.00326264 -0.000682358 -6.9155e-007 1.05293e-006 2.40092e-007 -6.92705e-007 1.05322e-006 2.40249e-007 -3.18055e-015 7.95139e-016 -3.18055e-015 6.92705e-007 -1.05322e-006 -2.40249e-007 -99.1304 -21.1806 -71.0314 85.7658 9.21157 -75.8938 -10.7392 41.5427 31.4571 -1.0138e-014 0 -3.97569e-016 -29.219 -87.3108 -38.8372 -30.9958 77.6822 44.9589 21.0042 22.1124 -26.7847 4.18953e-007 -3.1997e-007 -2.35371e-006 
-59.5119 4.94711 -1.79293 -90 1.98785e-016 3.50023 0.0531509 -1.44358 -0.251413 0.0999744 -2.88738 -0.501724 0.100007 -2.88738 -0.501726 -2.35496e-005 23.3415 7.28687e-005 -2.60518e-005 -51.52 -9.51898e-006 -16.8952 0.782651 24.828 0.0847899 0.121515 -79.1609 -20.551 -3.0131 -64.9712 -20.5164 -47.6369 -13.2105 4.70846e-008 -1.32292e-007 -7.09071e-007 -1.05192e-006 -1.19578e-006 -5.21521e-007 -1.05192e-006 -1.19578e-006 -5.21521e-007 4.70846e-008 -1.32292e-007 -7.09071e-007 -0.0145761 -9.02094e-005 4.57063e-007 -1.05188e-006 -1.19571e-006 -5.21672e-007 4.70846e-008 -1.32292e-007 -7.09071e-007 -0.0187689 -0.00118172 6.135e-005 -1.05187e-006 -1.19569e-006 -5.21706e-007 4.70846e-008 -1.32292e-007 -7.09071e-007 -0.0123583 -0.0032729 0.000680487 -1.05191e-006 -1.19571e-006 -5.21622e-007 4.70846e-008 -1.32292e-007 -7.09071e-007 -1.05192e-006 -1.19578e-006 -5.21521e-007 -1.05192e-006 -1.19578e-006 -5.21521e-007 16.0383 -1.84622 -28.5445 -0.238695 0.0034371 77.438 19.276 -5.31479 58.3132 37.3028 -43.0731 27.552 6.93028e-007 -1.0518e-006 -2.41256e-007 3.18055e-015 3.97569e-015 -0 -6.36111e-015 -1.59028e-015 7.95139e-016 6.93028e-007 -1.0518e-006 -2.41256e-007 0.0150334 -8.73312e-005 1.10496e-005 2.29523e-030 1.27222e-014 -1.03368e-014 6.93028e-007 -1.0518e-006 -2.41256e-007 0.0189916 -0.00119038 -5.47015e-005 -6.91249e-007 1.05172e-006 2.41084e-007 6.93028e-007 -1.0518e-006 -2.41256e-007 0.0122792 -0.00324789 -0.00067361 -0 0 2.38542e-015 6.93028e-007 -1.0518e-006 -2.41256e-007 3.18055e-015 3.97569e-015 -0 -6.36111e-015 -1.59028e-015 7.95139e-016 -98.7959 -21.7981 -70.9219 85.8109 9.21283 -75.9941 -10.8199 41.5191 31.5762 -6.46697e-007 4.93508e-007 -9.08789e-007 -23.0989 -86.8959 -32.8737 -29.898 76.4264 43.9742 21.2213 22.7245 -27.1634 4.0843e-006 -5.99577e-007 1.07379e-006 
